<svg data-v-fde0c5aa="" xmlns="http://www.w3.org/2000/svg" viewBox="0 0 300 300" class="iconAbove"><!----><defs data-v-fde0c5aa=""><linearGradient data-v-fde0c5aa="" gradientTransform="rotate(25)" id="2b0492b3-f0cf-4bec-bb4b-4e8b9011c349" x1="0%" y1="0%" x2="100%" y2="0%"><stop data-v-fde0c5aa="" offset="0%" stop-color="#08C7D6" stop-opacity="1"></stop><stop data-v-fde0c5aa="" offset="100%" stop-color="#02023E" stop-opacity="1"></stop></linearGradient></defs><rect data-v-fde0c5aa="" fill="url(#2b0492b3-f0cf-4bec-bb4b-4e8b9011c349)" x="0" y="0" width="300px" height="300px" class="logo-background-square"></rect><defs data-v-fde0c5aa=""><!----></defs><g data-v-fde0c5aa="" id="32889eb4-62ec-43f4-b734-31b99926d8a1" fill="#ffffff" transform="matrix(5.348159850458213,0,0,5.348159850458213,104.70108591360685,173.52025481005847)"><path d="M2.98 3.58L2.98 3.58L2.98 3.58Q3.50 3.58 3.74 3.93L3.74 3.93L3.74 3.93Q3.98 4.27 3.98 5.10L3.98 5.10L3.98 5.10Q3.98 5.92 3.38 9.47L3.38 9.47L3.38 9.47Q2.79 13.02 2.79 14.46L2.79 14.46L2.79 14.46Q2.79 14.74 2.80 14.88L2.80 14.88L2.80 14.88Q3.60 14.92 4.61 14.92L4.61 14.92L4.61 14.92Q7.21 14.92 7.87 14.56L7.87 14.56L7.87 14.56Q7.83 15.12 7.69 15.46L7.69 15.46L7.69 15.46Q7.55 15.79 7.23 15.95L7.23 15.95L7.23 15.95Q6.92 16.10 6.62 16.14L6.62 16.14L6.62 16.14Q6.31 16.17 5.66 16.17L5.66 16.17L5.66 16.17Q5.00 16.17 3.00 15.88L3.00 15.88L3.00 15.88Q2.62 16.14 2.21 16.14L2.21 16.14L2.21 16.14Q1.20 16.14 1.20 14.78L1.20 14.78L1.20 14.78Q1.20 13.89 1.79 10.56L1.79 10.56L1.79 10.56Q2.37 7.22 2.37 5.86L2.37 5.86L2.37 5.86Q2.37 4.49 2.07 3.91L2.07 3.91L2.07 3.91Q2.45 3.58 2.98 3.58ZM10.84 3.58L10.84 3.58L10.84 3.58Q11.37 3.58 11.61 3.93L11.61 3.93L11.61 3.93Q11.84 4.27 11.84 5.10L11.84 5.10L11.84 5.10Q11.84 5.92 11.25 9.47L11.25 9.47L11.25 9.47Q10.65 13.02 10.65 14.46L10.65 14.46L10.65 14.46Q10.65 14.74 10.67 14.88L10.67 14.88L10.67 14.88Q11.47 14.92 12.47 14.92L12.47 14.92L12.47 14.92Q15.08 14.92 15.74 14.56L15.74 14.56L15.74 14.56Q15.69 15.12 15.55 15.46L15.55 15.46L15.55 15.46Q15.41 15.79 15.10 15.95L15.10 15.95L15.10 15.95Q14.78 16.10 14.48 16.14L14.48 16.14L14.48 16.14Q14.18 16.17 13.52 16.17L13.52 16.17L13.52 16.17Q12.87 16.17 10.86 15.88L10.86 15.88L10.86 15.88Q10.49 16.14 10.08 16.14L10.08 16.14L10.08 16.14Q9.07 16.14 9.07 14.78L9.07 14.78L9.07 14.78Q9.07 13.89 9.65 10.56L9.65 10.56L9.65 10.56Q10.23 7.22 10.23 5.86L10.23 5.86L10.23 5.86Q10.23 4.49 9.94 3.91L9.94 3.91L9.94 3.91Q10.32 3.58 10.84 3.58Z"></path></g><defs data-v-fde0c5aa=""><!----></defs><g data-v-fde0c5aa="" id="9119c0dd-a66c-4ede-af52-5e5f67f97983" stroke="none" fill="#ffffff" transform="matrix(1.376776724901836,0,0,1.376776724901836,80.02394851202125,38.62322327509816)"><g clip-rule="evenodd"><path d="M12.983 10.59l17.018 88.223-5.872-59.049 29.021-1.892-.054-9.883L64.549 1 53.622 18.977z"></path><path d="M59.389 54.548l5.16-53.541-8.74 39.716-19.612 1.045 1.57 20.462-7.766 36.583 12.057-39.899z"></path><path d="M62.8 67.182l.549-10.453-15.979 3.755-.032 11.797-17.337 26.532 21.68-27.616zM65.711 62.394l14.841-4.731 1.509-12.532-15.899 2.095zM72.07 44.502l10.988-1.417 1.581-10.278-8.079-.373L64.549 1l8.43 30.967z"></path><path d="M87.413 31.294l1.256-9.506-9.544-2.694L64.549 1l14.483 22.437-.422 7z"></path></g></g><!----></svg>