<svg data-v-fde0c5aa="" xmlns="http://www.w3.org/2000/svg" viewBox="0 0 300 300" class="iconLeft"><!----><defs data-v-fde0c5aa=""><!----></defs><rect data-v-fde0c5aa="" fill="transparent" x="0" y="0" width="300px" height="300px" class="logo-background-square"></rect><defs data-v-fde0c5aa=""><!----></defs><g data-v-fde0c5aa="" id="080a45bf-bb07-4e19-be0c-ebcb53f76183" fill="#000000" transform="matrix(7.4095979556871026,0,0,7.4095979556871026,135.07417924441322,90.72321635450317)"><path d="M8.04 13.00L0.53 13.00L0.53 12.41L0.71 12.41L0.71 12.41Q0.95 12.41 1.16 12.37L1.16 12.37L1.16 12.37Q1.37 12.34 1.52 12.23L1.52 12.23L1.52 12.23Q1.68 12.13 1.77 11.93L1.77 11.93L1.77 11.93Q1.86 11.73 1.86 11.40L1.86 11.40L1.86 4.59L1.86 4.59Q1.86 4.27 1.77 4.07L1.77 4.07L1.77 4.07Q1.68 3.87 1.52 3.76L1.52 3.76L1.52 3.76Q1.37 3.66 1.16 3.62L1.16 3.62L1.16 3.62Q0.95 3.59 0.71 3.59L0.71 3.59L0.53 3.59L0.53 3.00L4.61 3.00L4.61 3.59L4.42 3.59L4.42 3.59Q4.19 3.59 3.98 3.62L3.98 3.62L3.98 3.62Q3.77 3.65 3.62 3.75L3.62 3.75L3.62 3.75Q3.46 3.86 3.37 4.04L3.37 4.04L3.37 4.04Q3.27 4.23 3.27 4.54L3.27 4.54L3.27 12.30L6.04 12.30L6.04 12.30Q6.35 12.30 6.57 12.19L6.57 12.19L6.57 12.19Q6.79 12.07 6.94 11.89L6.94 11.89L6.94 11.89Q7.08 11.71 7.16 11.48L7.16 11.48L7.16 11.48Q7.24 11.26 7.27 11.03L7.27 11.03L7.40 9.99L8.13 9.99L8.04 13.00ZM16.76 13.00L9.26 13.00L9.26 12.41L9.43 12.41L9.43 12.41Q9.67 12.41 9.88 12.37L9.88 12.37L9.88 12.37Q10.09 12.34 10.25 12.23L10.25 12.23L10.25 12.23Q10.40 12.13 10.49 11.93L10.49 11.93L10.49 11.93Q10.58 11.73 10.58 11.40L10.58 11.40L10.58 4.59L10.58 4.59Q10.58 4.27 10.49 4.07L10.49 4.07L10.49 4.07Q10.40 3.87 10.25 3.76L10.25 3.76L10.25 3.76Q10.09 3.66 9.88 3.62L9.88 3.62L9.88 3.62Q9.67 3.59 9.43 3.59L9.43 3.59L9.26 3.59L9.26 3.00L13.33 3.00L13.33 3.59L13.15 3.59L13.15 3.59Q12.91 3.59 12.70 3.62L12.70 3.62L12.70 3.62Q12.50 3.65 12.34 3.75L12.34 3.75L12.34 3.75Q12.18 3.86 12.09 4.04L12.09 4.04L12.09 4.04Q12.00 4.23 12.00 4.54L12.00 4.54L12.00 12.30L14.76 12.30L14.76 12.30Q15.07 12.30 15.30 12.19L15.30 12.19L15.30 12.19Q15.52 12.07 15.66 11.89L15.66 11.89L15.66 11.89Q15.80 11.71 15.88 11.48L15.88 11.48L15.88 11.48Q15.96 11.26 15.99 11.03L15.99 11.03L16.13 9.99L16.86 9.99L16.76 13.00Z"></path></g><defs data-v-fde0c5aa=""><linearGradient data-v-fde0c5aa="" gradientTransform="rotate(25)" id="d1256ab5-2eb7-493e-8073-e54e4da0f438" x1="0%" y1="0%" x2="100%" y2="0%"><stop data-v-fde0c5aa="" offset="0%" stop-color="#0076DD" stop-opacity="1"></stop><stop data-v-fde0c5aa="" offset="100%" stop-color="#00CDE9" stop-opacity="1"></stop></linearGradient></defs><g data-v-fde0c5aa="" id="d16bc067-b833-41a3-a247-0d39ffd4f6b4" stroke="none" fill="url(#d1256ab5-2eb7-493e-8073-e54e4da0f438)" transform="matrix(1.136290322480595,0,0,1.136290322480595,25.247542968633823,93.29172500986614)"><g clip-rule="evenodd"><path d="M12.983 10.59l17.018 88.223-5.872-59.049 29.021-1.892-.054-9.883L64.549 1 53.622 18.977z"></path><path d="M59.389 54.548l5.16-53.541-8.74 39.716-19.612 1.045 1.57 20.462-7.766 36.583 12.057-39.899z"></path><path d="M62.8 67.182l.549-10.453-15.979 3.755-.032 11.797-17.337 26.532 21.68-27.616zM65.711 62.394l14.841-4.731 1.509-12.532-15.899 2.095zM72.07 44.502l10.988-1.417 1.581-10.278-8.079-.373L64.549 1l8.43 30.967z"></path><path d="M87.413 31.294l1.256-9.506-9.544-2.694L64.549 1l14.483 22.437-.422 7z"></path></g></g><!----></svg>